<?xml version="1.0" standalone="no"?>
<!DOCTYPE svg PUBLIC "-//W3C//DTD SVG 20010904//EN"
 "http://www.w3.org/TR/2001/REC-SVG-20010904/DTD/svg10.dtd">
<svg version="1.0" xmlns="http://www.w3.org/2000/svg"
 width="911.000000pt" height="873.000000pt" viewBox="0 0 911.000000 873.000000"
 preserveAspectRatio="xMidYMid meet">

<g transform="translate(0.000000,873.000000) scale(0.100000,-0.100000)"
fill="#000000" stroke="none">
<path d="M4325 8574 c-599 -56 -1075 -186 -1570 -429 -809 -398 -1491 -1072
-1904 -1885 -260 -510 -396 -1005 -456 -1657 -9 -105 -7 -451 5 -597 37 -483
118 -827 311 -1325 44 -115 203 -432 284 -566 317 -525 798 -1029 1300 -1361
182 -120 372 -232 510 -299 149 -73 436 -189 575 -233 426 -135 997 -214 1435
-197 640 23 1205 164 1770 440 444 216 884 546 1257 942 335 354 622 800 803
1245 174 430 282 856 310 1226 4 42 9 91 11 107 11 59 13 592 4 691 -88 935
-431 1754 -1015 2424 -291 334 -490 511 -845 752 -336 229 -722 413 -1130 540
-217 67 -570 146 -724 162 -300 31 -720 40 -931 20z m700 -163 c495 -43 1013
-185 1486 -409 426 -202 799 -471 1159 -838 221 -225 251 -261 399 -473 258
-370 395 -638 532 -1041 64 -186 91 -287 133 -495 66 -328 81 -474 81 -805 0
-173 -12 -466 -19 -479 -2 -3 -7 -40 -10 -81 -32 -355 -178 -849 -374 -1263
-185 -389 -505 -835 -818 -1137 -221 -214 -400 -359 -620 -503 -533 -349
-1073 -558 -1694 -656 -303 -48 -732 -56 -1030 -20 -47 6 -103 13 -125 15
-213 26 -519 98 -739 174 -175 61 -504 201 -644 276 -223 117 -502 308 -732
499 -407 339 -823 867 -1028 1305 -195 418 -290 696 -361 1055 -57 285 -66
394 -66 760 0 374 16 547 81 864 47 232 155 579 236 761 192 427 320 639 595
985 196 247 480 515 800 756 190 143 481 304 788 435 393 167 953 298 1370
321 61 3 112 7 113 9 8 6 365 -5 487 -15z"/>
<path d="M4410 8133 c-30 -2 -88 -5 -127 -9 -69 -5 -73 -7 -73 -30 0 -17 6
-24 19 -24 34 0 37 -12 47 -250 12 -259 13 -243 -18 -258 -28 -13 -38 -47 -17
-54 6 -2 50 -1 97 3 48 4 141 10 207 14 93 5 123 10 133 23 14 19 16 138 2
147 -14 8 -50 -13 -50 -30 0 -8 -10 -26 -23 -41 -20 -23 -33 -27 -96 -32 -50
-3 -76 -1 -81 7 -4 7 -8 55 -9 106 l-2 95 61 0 c55 0 61 -2 72 -25 8 -18 18
-25 32 -23 18 3 21 11 24 68 4 87 -3 112 -31 108 -14 -2 -23 -11 -25 -24 -4
-25 -27 -34 -89 -34 -49 0 -51 5 -53 100 -2 109 -9 100 73 100 76 0 95 -9 110
-53 8 -22 34 -32 50 -19 8 7 11 30 7 74 l-5 63 -90 0 c-49 0 -115 -1 -145 -2z"/>
<path d="M5050 8100 c0 -18 5 -30 13 -30 38 0 48 -37 113 -420 14 -85 29 -158
32 -161 17 -15 70 -26 85 -18 9 6 33 38 53 72 20 34 86 142 146 240 94 151
113 177 134 177 26 0 49 37 34 53 -4 5 -48 19 -98 32 -76 19 -93 20 -103 9
-15 -18 -3 -52 22 -59 10 -4 19 -11 19 -18 0 -15 -173 -327 -181 -327 -4 0
-10 28 -14 63 -4 34 -16 109 -26 167 -26 148 -26 148 19 152 32 3 37 7 40 29
l3 26 -138 22 c-76 12 -141 21 -145 21 -5 0 -8 -13 -8 -30z"/>
<path d="M3675 8019 c-174 -37 -190 -42 -193 -66 -3 -18 2 -22 30 -25 31 -3
34 -6 50 -68 10 -35 34 -140 55 -233 l37 -170 -25 -21 c-30 -25 -28 -56 5 -56
26 0 193 42 286 72 139 45 200 120 208 258 6 103 -15 172 -70 235 -84 95 -189
116 -383 74z m158 -60 c83 -23 143 -110 154 -224 8 -83 -10 -148 -52 -190 -32
-32 -112 -62 -138 -52 -16 6 -112 446 -100 457 20 20 84 24 136 9z"/>
<path d="M5757 7983 c-14 -13 -6 -41 13 -46 11 -3 20 -13 19 -24 -1 -10 -33
-115 -72 -233 l-72 -215 -34 0 c-25 0 -36 -5 -42 -22 -6 -18 -4 -23 14 -29 12
-3 104 -38 205 -76 100 -38 189 -67 197 -64 8 3 28 33 45 66 30 59 30 63 13
76 -25 18 -28 18 -46 -10 -28 -42 -66 -47 -142 -21 -37 13 -70 26 -73 30 -8 8
51 187 64 192 6 2 33 -5 60 -15 42 -17 50 -24 54 -52 3 -22 12 -35 27 -41 21
-8 24 -3 48 73 19 62 23 84 14 94 -16 20 -34 17 -50 -6 -14 -20 -15 -20 -64
-4 -27 9 -54 20 -59 24 -9 9 28 131 50 167 l14 23 53 -20 c59 -22 97 -60 97
-95 0 -14 8 -29 20 -35 17 -9 21 -4 39 57 21 68 17 93 -15 93 -7 0 -89 27
-181 60 -172 61 -185 65 -196 53z"/>
<path d="M2799 7685 c-28 -15 -43 -40 -33 -56 7 -12 74 -465 74 -505 0 -17 -9
-43 -21 -57 -16 -22 -18 -30 -9 -47 6 -12 14 -20 18 -18 53 24 172 92 172 99
0 13 -23 24 -50 24 -23 0 -26 6 -37 60 -7 33 -11 65 -9 70 2 6 38 28 80 50
l76 40 47 -47 47 -47 -20 -23 c-22 -25 -21 -58 1 -58 16 0 222 108 230 120 3
4 2 16 -1 25 -5 11 -14 14 -33 10 -24 -5 -52 16 -241 184 -225 199 -236 206
-291 176z m135 -214 l78 -78 -57 -32 c-31 -18 -59 -31 -61 -28 -2 2 -11 41
-19 88 -9 46 -18 94 -20 107 -3 12 -4 22 -2 22 1 0 38 -35 81 -79z"/>
<path d="M6395 7671 c-168 -44 -283 -248 -233 -413 16 -54 89 -133 152 -165
39 -20 70 -27 135 -31 89 -5 101 0 101 46 0 20 -4 22 -60 22 -126 0 -193 66
-193 190 0 140 112 280 224 280 86 0 136 -64 125 -160 -5 -47 -4 -59 9 -63 27
-11 40 3 73 80 l32 77 -41 42 c-62 63 -136 96 -222 100 -40 2 -85 0 -102 -5z"/>
<path d="M2287 7340 c-142 -109 -197 -156 -193 -167 10 -25 80 -112 91 -113
26 -1 33 22 19 57 -8 19 -12 43 -9 53 6 20 60 70 76 70 12 0 279 -357 279
-374 0 -7 -9 -21 -20 -31 -19 -17 -19 -19 -4 -37 10 -10 20 -18 25 -18 8 0
199 150 199 157 0 2 -5 13 -10 24 -9 15 -15 17 -30 9 -10 -5 -25 -10 -33 -10
-16 0 -287 354 -287 374 0 3 18 15 41 26 l41 21 55 -27 c46 -24 56 -26 64 -13
13 21 14 19 -48 87 l-58 63 -198 -151z"/>
<path d="M6881 7436 c-10 -11 -10 -20 -1 -36 7 -12 10 -29 7 -39 -2 -9 -62
-96 -132 -194 -127 -177 -129 -178 -160 -173 -23 5 -36 2 -45 -9 -16 -19 -18
-17 95 -99 77 -55 92 -62 104 -51 12 12 12 19 2 41 -14 31 -20 20 159 263 102
138 106 142 136 136 32 -6 60 13 52 35 -4 14 -179 140 -194 140 -6 0 -17 -6
-23 -14z"/>
<path d="M4620 7277 c-3 -2 -62 -7 -131 -10 -418 -20 -896 -156 -1262 -357
-383 -212 -686 -478 -963 -845 -312 -414 -504 -924 -561 -1485 -5 -41 -8 -172
-7 -290 1 -293 41 -551 131 -850 72 -240 205 -527 338 -730 100 -152 322 -415
457 -544 166 -157 236 -213 413 -331 572 -382 1269 -552 1968 -481 573 59
1164 308 1586 670 265 228 411 388 576 636 128 193 181 288 255 460 170 399
255 797 255 1200 0 113 -13 348 -19 359 -2 3 -7 35 -10 71 -16 156 -93 442
-172 644 -156 394 -360 703 -669 1011 -241 241 -447 389 -760 547 -393 198
-799 300 -1290 324 -71 3 -132 4 -135 1z m470 -123 c277 -40 430 -81 673 -180
291 -118 462 -215 722 -409 218 -162 460 -423 631 -680 303 -456 466 -996 465
-1545 0 -326 -42 -595 -137 -890 -86 -267 -175 -458 -325 -698 -127 -204 -245
-345 -447 -536 -194 -182 -327 -281 -555 -410 -327 -186 -735 -320 -1077 -356
-58 -6 -127 -13 -154 -16 -69 -8 -336 -8 -426 1 -246 22 -547 90 -803 182
-231 82 -525 246 -721 401 -290 229 -505 456 -669 707 -236 362 -381 738 -454
1177 -25 149 -27 186 -27 418 1 231 3 270 28 415 53 311 104 489 203 715 201
456 492 832 878 1133 220 171 460 302 760 412 209 78 350 115 565 149 212 34
196 33 465 34 204 0 265 -3 405 -24z"/>
<path d="M4535 6919 c-66 -131 -82 -170 -68 -167 12 2 46 58 100 163 45 88 82
163 83 168 0 4 -7 7 -15 7 -9 0 -47 -64 -100 -171z"/>
<path d="M4748 7064 c-26 -13 -47 -58 -35 -70 3 -3 15 4 26 15 39 39 91 22 91
-28 -1 -39 -18 -63 -93 -132 -50 -45 -65 -64 -55 -70 7 -5 52 -9 99 -9 70 0
88 3 93 16 14 36 8 40 -61 36 l-68 -5 53 48 c29 26 59 60 67 76 47 91 -29 171
-117 123z"/>
<path d="M4320 7049 c-140 -56 -147 -309 -8 -309 51 0 77 14 92 52 36 85 -40
170 -117 131 -28 -14 -29 -14 -22 9 12 37 44 77 76 94 16 8 27 19 24 24 -7 12
-13 12 -45 -1z m30 -179 c6 -12 10 -38 8 -58 -2 -30 -7 -38 -26 -40 -30 -5
-48 11 -62 54 -9 27 -9 38 0 49 19 22 67 19 80 -5z"/>
<path d="M5020 7052 c-53 -17 -97 -117 -87 -200 14 -124 139 -148 188 -36 38
84 20 213 -30 229 -33 10 -55 13 -71 7z m61 -44 c16 -29 6 -156 -16 -197 -36
-71 -80 -44 -78 47 2 130 58 218 94 150z"/>
<path d="M4015 7001 c-58 -25 -77 -94 -50 -186 22 -76 60 -115 112 -115 54 0
84 33 91 99 11 119 -76 234 -153 202z m54 -47 c45 -57 66 -188 35 -219 -24
-23 -55 0 -76 59 -28 74 -34 149 -13 169 22 23 30 22 54 -9z"/>
<path d="M5236 6989 c-14 -11 -26 -29 -26 -40 0 -19 1 -19 29 2 56 41 107 2
81 -62 -11 -26 -60 -64 -147 -115 -18 -10 -33 -24 -33 -30 0 -6 39 -21 88 -33
l87 -21 18 21 c25 31 22 37 -20 38 -21 0 -51 4 -67 9 l-30 8 63 38 c98 60 128
130 76 181 -30 31 -82 33 -119 4z"/>
<path d="M3853 6962 c-7 -4 -19 -48 -28 -97 -41 -231 -47 -267 -41 -272 15
-16 28 23 56 172 17 88 33 170 35 183 6 23 -1 27 -22 14z"/>
<path d="M5483 6885 l-43 -65 28 -14 c38 -20 82 -65 82 -86 0 -21 -31 -50 -54
-50 -10 0 -31 14 -47 31 -31 34 -59 33 -59 0 0 -36 49 -57 123 -53 37 2 87 52
87 87 0 27 -44 80 -84 102 -15 9 -16 13 -6 33 10 19 17 21 43 15 57 -14 91
-11 95 7 2 12 -11 21 -50 33 -29 10 -57 19 -63 21 -5 2 -29 -25 -52 -61z"/>
<path d="M3505 6805 c-26 -25 -35 -88 -15 -100 6 -3 10 2 10 12 0 33 29 63 60
63 59 0 65 -64 19 -187 -18 -46 -29 -86 -25 -90 7 -7 141 53 165 73 9 8 11 22
7 38 -6 25 -26 37 -26 16 0 -11 -80 -54 -87 -46 -3 2 4 30 16 61 42 111 17
185 -60 185 -29 0 -47 -7 -64 -25z"/>
<path d="M4412 6671 c-25 -15 -52 -110 -52 -179 0 -81 18 -123 88 -209 27 -34
55 -77 61 -95 16 -52 24 -128 14 -128 -18 0 -119 78 -131 101 -6 13 -21 55
-33 93 -42 138 -121 216 -247 244 -38 9 -44 8 -53 -10 -15 -28 -3 -114 25
-174 44 -95 109 -149 222 -184 62 -19 164 -88 199 -135 13 -16 28 -48 33 -70
20 -76 33 -267 31 -458 -2 -208 -6 -267 -20 -267 -18 0 -90 126 -111 193 -24
80 -21 178 8 261 23 66 14 142 -26 223 -32 65 -128 173 -154 173 -8 0 -25 -21
-38 -47 -19 -40 -23 -63 -22 -134 0 -101 24 -161 98 -245 55 -63 69 -96 61
-146 -6 -34 -9 -37 -23 -26 -38 31 -142 163 -162 205 -37 78 -119 321 -135
400 -30 143 -77 213 -178 263 -73 35 -172 50 -200 28 -16 -12 -16 -16 2 -81
21 -76 72 -158 126 -200 20 -16 66 -42 103 -58 122 -55 114 -47 149 -144 36
-103 59 -193 51 -201 -7 -6 -104 46 -163 88 -22 15 -51 45 -64 66 -13 20 -36
54 -50 75 -48 74 -176 137 -275 137 -65 0 -154 -21 -160 -37 -7 -18 26 -95 60
-140 66 -87 211 -145 353 -141 78 3 91 0 143 -26 71 -37 141 -96 257 -220 150
-160 255 -313 280 -411 17 -68 23 -127 12 -124 -5 2 -54 43 -108 90 -116 101
-241 270 -278 376 -40 114 -113 183 -194 183 -66 0 -97 -19 -93 -56 5 -42 52
-123 87 -149 16 -13 59 -35 95 -49 69 -28 131 -81 151 -128 26 -64 -13 -48
-202 83 -74 52 -154 107 -178 124 -24 16 -55 45 -69 65 -76 103 -138 141 -250
148 -58 4 -84 0 -135 -18 -62 -23 -130 -61 -141 -79 -8 -12 100 -103 152 -130
90 -46 198 -55 305 -26 65 17 66 17 112 -5 25 -12 83 -58 128 -101 l82 -78
-55 -2 c-30 -1 -92 -3 -138 -4 -48 -2 -108 3 -145 12 -143 34 -290 -3 -377
-96 -55 -59 -88 -117 -74 -131 20 -20 131 -43 209 -44 101 -1 152 21 238 102
118 111 120 112 200 112 40 0 99 -7 132 -14 77 -19 205 -66 205 -76 0 -16 -58
-23 -185 -25 -146 -1 -189 -14 -259 -76 -52 -45 -81 -94 -112 -185 -28 -85
-25 -94 31 -94 158 0 288 76 373 220 44 73 81 100 145 105 65 5 136 -32 217
-113 71 -71 108 -132 135 -224 35 -123 15 -488 -36 -655 -30 -96 -65 -129
-164 -154 -201 -49 -344 -111 -526 -226 -130 -83 -242 -141 -441 -228 -201
-90 -333 -155 -477 -237 -121 -70 -301 -186 -301 -195 0 -3 43 -64 96 -135
l96 -128 75 70 c132 126 294 236 498 338 134 68 186 86 560 202 176 54 365
117 420 139 55 22 101 39 102 37 2 -1 -8 -25 -22 -52 -63 -122 -200 -192 -485
-248 -191 -38 -183 -34 -361 -167 -81 -60 -144 -98 -207 -124 -50 -20 -101
-49 -114 -63 -21 -23 -21 -24 -3 -17 51 20 155 48 160 43 8 -8 -29 -82 -62
-126 -30 -40 -68 -60 -141 -73 -76 -14 -92 -19 -92 -30 0 -12 136 -11 181 1
44 12 102 72 148 153 44 78 129 168 204 217 62 40 181 91 246 105 l34 7 -47
-59 c-27 -34 -60 -94 -77 -139 -34 -89 -52 -111 -126 -160 -28 -19 -62 -49
-76 -67 -36 -47 -111 -200 -95 -195 7 3 39 41 70 85 44 62 74 92 128 128 39
26 74 45 77 42 11 -11 -18 -140 -42 -188 -14 -26 -48 -75 -76 -110 -49 -58
-50 -61 -19 -43 48 28 127 121 161 190 23 46 36 95 50 188 10 72 27 143 39
165 29 58 85 107 164 147 66 32 208 68 220 56 3 -3 -10 -26 -30 -53 -32 -44
-66 -111 -213 -423 -28 -60 -73 -142 -101 -182 -27 -40 -61 -99 -75 -131 -14
-32 -39 -75 -55 -95 -17 -20 -30 -40 -30 -44 0 -19 86 78 141 159 57 83 78
102 80 75 0 -7 3 -26 5 -43 8 -43 -13 -148 -42 -212 -27 -62 -24 -81 7 -43 54
67 81 162 93 327 4 54 16 94 46 162 52 119 80 174 86 168 11 -11 44 -173 44
-217 0 -27 -9 -88 -20 -135 -23 -98 -22 -95 -12 -95 4 0 25 37 47 82 43 90 45
102 35 358 -3 72 0 94 21 145 34 81 125 225 196 310 33 39 75 93 94 120 l34
50 3 -100 c5 -187 -20 -277 -127 -459 -96 -162 -103 -185 -111 -371 -4 -89
-12 -173 -19 -190 -7 -16 -30 -54 -52 -83 -48 -63 -78 -127 -79 -164 0 -36 14
-36 30 1 6 16 43 67 81 113 88 106 100 140 102 305 2 126 3 129 40 207 20 43
39 77 41 75 2 -2 8 -34 14 -70 6 -36 28 -113 50 -172 57 -150 60 -189 27 -343
-28 -130 -28 -168 0 -211 24 -35 30 -28 27 30 -2 35 6 91 27 171 18 67 31 144
31 177 0 59 0 59 22 48 50 -27 131 -117 188 -209 52 -86 83 -120 97 -106 2 2
-26 62 -63 132 -62 120 -74 136 -174 234 -89 88 -110 114 -128 162 -25 66 -32
142 -19 213 8 48 74 205 86 205 3 0 18 -24 33 -53 16 -28 52 -83 82 -122 84
-107 102 -142 139 -268 30 -104 80 -207 93 -194 3 3 -1 31 -10 63 -18 75 -40
233 -33 241 6 6 74 -31 145 -80 83 -56 97 -109 67 -264 -20 -104 -19 -146 5
-193 26 -51 45 -63 37 -24 -20 88 -19 121 8 233 l27 113 55 -98 c78 -140 98
-168 144 -193 22 -13 42 -21 45 -19 2 3 -11 25 -30 49 -18 25 -60 94 -91 154
-106 203 -192 300 -353 397 -88 53 -143 112 -188 199 -31 62 -74 211 -74 257
l0 35 31 -46 c46 -70 119 -129 247 -199 256 -141 291 -175 338 -323 35 -111
71 -172 127 -217 45 -35 67 -46 67 -33 0 3 -20 30 -44 59 -26 33 -52 80 -65
119 -26 78 -42 167 -29 167 20 0 88 -41 119 -72 77 -77 130 -185 149 -303 10
-64 47 -147 68 -153 11 -3 12 0 3 16 -6 11 -13 44 -16 73 -10 107 -13 169 -7
169 18 0 108 -69 142 -109 30 -35 40 -41 40 -27 0 48 -43 108 -116 162 -40 29
-94 79 -121 110 -107 126 -140 157 -214 201 -84 50 -239 169 -239 184 0 5 12
9 26 9 15 0 55 5 90 12 52 9 73 9 129 -5 76 -19 103 -38 172 -122 86 -103 266
-277 308 -296 22 -10 56 -18 75 -18 l35 0 -31 13 c-37 17 -234 205 -234 225 0
11 18 13 93 8 109 -7 124 -12 217 -73 38 -26 73 -44 77 -40 10 9 -75 93 -123
122 -42 25 -102 39 -214 49 -107 10 -114 13 -163 70 -26 29 -47 56 -47 58 0 3
9 3 20 0 45 -12 15 10 -67 50 -97 46 -92 46 -368 36 -115 -4 -123 -3 -181 24
-34 16 -80 47 -102 70 -42 42 -104 163 -117 227 l-8 35 50 -46 c82 -77 121
-91 399 -143 161 -30 193 -40 300 -89 65 -30 205 -85 309 -122 222 -78 287
-110 415 -206 131 -99 290 -201 304 -196 6 3 53 59 103 126 l93 121 -40 25
c-22 14 -41 25 -43 25 -2 0 -82 43 -178 96 -204 112 -286 152 -509 246 -199
85 -260 115 -410 204 -63 37 -164 96 -225 132 -161 95 -309 166 -405 197 -163
51 -153 45 -172 102 -25 78 -45 234 -47 368 -3 195 41 326 145 435 73 77 139
112 224 118 97 7 127 -7 202 -91 80 -89 137 -120 230 -125 65 -4 184 17 218
38 22 14 -31 112 -92 172 -88 86 -238 115 -356 69 -51 -20 -79 -21 -170 -2
-33 6 -32 7 60 53 160 79 223 94 381 89 33 -1 49 -11 110 -69 118 -111 209
-141 336 -108 67 17 91 30 91 50 0 24 -128 151 -175 175 -66 33 -153 38 -240
14 -61 -16 -81 -17 -154 -8 l-85 10 80 73 79 73 55 -8 c112 -16 200 -9 263 20
55 25 168 121 189 160 28 53 -146 125 -259 106 -108 -17 -179 -70 -245 -181
-33 -55 -58 -81 -126 -132 -83 -63 -228 -143 -239 -133 -3 3 1 25 9 49 11 32
26 51 59 73 107 72 170 167 173 258 1 62 -8 66 -89 42 -107 -31 -165 -118
-165 -251 0 -49 -6 -76 -24 -112 -32 -62 -62 -89 -179 -156 -86 -49 -97 -53
-92 -33 12 39 34 66 74 91 53 34 78 69 97 134 24 82 3 192 -37 200 -9 2 -44
-22 -77 -53 -82 -76 -107 -138 -97 -247 9 -110 -10 -149 -132 -269 l-95 -94 6
90 c9 145 43 240 144 405 124 201 219 313 294 345 18 7 114 30 213 50 164 35
185 37 236 26 125 -25 221 -1 302 77 36 35 87 118 87 142 0 19 -72 42 -134 42
-119 1 -206 -43 -276 -137 -24 -33 -56 -63 -74 -70 -30 -13 -241 -45 -293 -45
-21 0 -18 7 38 85 l62 84 71 16 c191 42 317 165 333 323 l6 55 -75 -5 c-164
-11 -282 -105 -341 -276 -23 -65 -36 -84 -135 -190 -146 -155 -212 -219 -212
-204 0 6 14 73 30 149 17 75 30 138 30 140 0 1 34 27 76 58 92 69 144 144 169
246 18 74 16 192 -4 212 -12 12 -87 -7 -142 -34 -20 -10 -59 -43 -87 -73 -80
-88 -103 -181 -82 -335 15 -115 6 -170 -66 -392 -44 -135 -74 -188 -88 -154
-3 9 -9 41 -12 70 -5 43 -3 59 13 82 32 47 43 82 43 135 0 66 -17 122 -46 149
l-24 22 -25 -23 c-63 -59 -77 -190 -30 -300 24 -58 27 -74 22 -140 -6 -85 -26
-147 -65 -205 l-27 -40 -6 35 c-6 38 -12 264 -13 505 0 125 4 164 22 235 33
124 59 171 109 198 66 36 133 110 166 182 53 115 46 310 -12 318 -28 4 -117
-56 -173 -116 -67 -73 -81 -117 -88 -277 -6 -115 -11 -149 -30 -192 -12 -29
-26 -53 -31 -53 -7 0 -41 135 -54 216 -4 27 0 62 11 99 35 122 4 252 -79 335
-48 49 -69 61 -85 51z"/>
<path d="M6110 6672 c0 -4 5 -13 12 -20 9 -9 -4 -35 -55 -112 -55 -82 -72
-100 -92 -100 -37 0 -31 -11 26 -48 50 -33 73 -37 50 -8 -10 12 -10 20 0 38
24 47 28 48 66 22 23 -15 50 -24 75 -24 73 0 121 78 88 141 -9 16 -150 119
-165 119 -3 0 -5 -4 -5 -8z m118 -101 c18 -22 15 -55 -9 -85 -24 -30 -53 -33
-91 -8 -31 20 -31 18 29 100 26 35 37 34 71 -7z"/>
<path d="M3179 6630 c-72 -20 -113 -75 -112 -152 2 -121 120 -194 223 -139 42
22 80 83 80 129 0 99 -102 185 -191 162z m77 -65 c17 -13 42 -45 54 -70 19
-39 20 -49 10 -80 -21 -64 -87 -75 -145 -24 -45 40 -65 78 -65 124 0 73 80
101 146 50z"/>
<path d="M6447 6433 c-4 -3 -4 -16 -1 -28 4 -16 -11 -40 -62 -101 -72 -85
-104 -103 -104 -60 0 29 -11 39 -34 30 -22 -8 -20 -47 2 -67 44 -40 105 -15
186 77 42 48 64 66 83 66 13 0 23 4 21 8 -7 17 -85 81 -91 75z"/>
<path d="M2903 6409 c-32 -9 -172 -129 -163 -139 3 -3 14 -4 26 -2 15 2 39
-20 90 -79 38 -44 72 -86 76 -93 9 -16 -27 -56 -50 -56 -9 1 -75 23 -147 49
-84 32 -134 46 -140 39 -7 -6 13 -54 58 -139 52 -97 67 -136 63 -155 -9 -34 7
-30 43 11 35 41 40 59 12 50 -13 -4 -25 2 -40 21 -21 26 -21 27 -1 54 34 48
44 53 83 36 30 -12 35 -18 30 -38 -4 -16 20 3 83 65 49 48 99 94 112 103 28
19 62 85 62 120 0 43 -38 111 -74 134 -42 25 -82 32 -123 19z m98 -77 c52 -48
62 -107 29 -160 -30 -49 -48 -51 -84 -10 -17 20 -53 61 -80 92 -48 56 -49 57
-30 77 24 27 50 38 92 38 25 1 43 -8 73 -37z m-261 -301 c0 -3 -9 -17 -20 -31
-20 -25 -20 -25 -36 -5 -8 11 -22 32 -30 46 l-13 27 49 -16 c28 -9 50 -18 50
-21z"/>
<path d="M6154 6315 c-8 -21 2 -45 19 -45 8 0 20 7 27 15 10 12 10 18 0 30 -7
8 -19 15 -27 15 -7 0 -16 -7 -19 -15z"/>
<path d="M6377 6144 c-12 -12 -8 -42 6 -47 21 -8 39 8 35 29 -3 19 -29 30 -41
18z"/>
<path d="M6713 6100 c-28 -11 -31 -34 -4 -25 25 8 69 -13 77 -37 13 -41 -37
-61 -91 -36 -33 15 -39 7 -20 -28 21 -40 19 -70 -6 -88 -30 -21 -68 -2 -77 38
-3 17 -5 34 -4 38 3 10 -36 20 -49 13 -15 -10 -2 -55 24 -84 71 -77 188 -52
175 38 -4 27 -2 29 31 29 36 0 71 29 71 59 0 30 -31 71 -61 82 -37 13 -37 13
-66 1z"/>
<path d="M2485 5933 c-37 -10 -72 -42 -123 -116 -50 -73 -57 -97 -23 -75 15 9
33 1 97 -42 105 -70 123 -87 117 -111 -10 -38 13 -17 66 61 46 68 53 85 53
124 -2 76 -38 126 -109 152 -40 14 -47 15 -78 7z m105 -93 c20 -20 39 -48 42
-61 5 -29 -7 -77 -27 -103 -14 -19 -19 -17 -115 48 -55 37 -100 72 -100 78 0
23 43 68 73 76 50 13 87 2 127 -38z"/>
<path d="M6875 5909 c-35 -10 -55 -34 -55 -65 0 -20 -3 -21 -33 -14 -65 14
-103 -18 -94 -81 15 -114 152 -136 174 -28 5 29 8 30 39 24 28 -5 39 -1 59 19
29 29 31 55 10 96 -21 40 -61 60 -100 49z m63 -41 c20 -20 14 -56 -13 -74 -29
-19 -60 -15 -59 9 1 9 2 23 3 31 1 18 29 46 45 46 6 0 17 -5 24 -12z m-118
-101 c0 -42 -26 -79 -52 -75 -46 7 -50 75 -6 96 43 20 58 15 58 -21z"/>
<path d="M2256 5657 c-30 -51 -30 -65 2 -48 15 8 35 3 98 -28 l79 -38 -65 -11
c-36 -7 -87 -15 -115 -18 -64 -9 -81 -18 -101 -55 -18 -36 -14 -45 13 -29 16
10 35 4 121 -39 56 -28 103 -56 103 -61 1 -6 2 -14 3 -19 3 -26 17 -19 35 18
27 51 27 65 1 49 -17 -11 -32 -6 -111 32 l-90 46 147 24 c87 15 149 30 151 37
3 7 -41 35 -104 67 -113 56 -128 68 -135 101 -3 16 -9 10 -32 -28z"/>
<path d="M6985 5691 c-3 -5 -1 -12 5 -16 5 -3 10 -4 10 0 0 3 14 -1 30 -10 23
-12 30 -22 30 -45 0 -57 -62 -67 -188 -31 -45 13 -85 21 -88 18 -4 -3 13 -41
37 -84 44 -78 66 -95 98 -74 11 7 9 13 -7 29 -26 26 -56 82 -44 82 5 0 29 -7
52 -15 62 -22 132 -19 164 6 59 46 19 149 -58 149 -19 0 -37 -4 -41 -9z"/>
<path d="M7100 5463 c0 -9 3 -14 6 -10 4 3 19 0 35 -9 22 -11 29 -22 29 -44 0
-48 -48 -49 -102 -2 -20 17 -21 14 -18 -40 2 -48 -15 -78 -44 -78 -34 0 -51
27 -49 76 1 31 -3 44 -15 49 -39 15 -46 -42 -12 -104 14 -28 68 -61 98 -61 31
0 72 43 72 75 0 22 3 24 19 15 81 -43 139 54 72 121 -34 33 -91 41 -91 12z"/>
<path d="M2109 5345 c-18 -50 -16 -59 12 -42 15 10 35 6 104 -17 108 -37 128
-58 112 -118 -8 -32 -41 -53 -77 -50 -14 1 -59 15 -100 30 -59 22 -76 32 -78
50 -6 37 -19 25 -40 -38 -16 -46 -18 -60 -7 -60 7 0 15 7 18 15 5 12 18 10 79
-11 115 -40 138 -44 173 -29 22 9 39 27 54 59 41 83 9 135 -106 176 -80 28
-113 47 -113 66 0 28 -16 13 -31 -31z"/>
<path d="M7232 5243 c-11 -4 -11 -8 1 -22 15 -17 50 -112 43 -118 -2 -3 -55 5
-117 16 -140 26 -149 26 -149 2 0 -16 10 -20 53 -26 28 -3 101 -13 160 -22 60
-8 111 -12 115 -9 3 4 -7 47 -23 96 -29 92 -38 101 -83 83z"/>
<path d="M1978 4938 c-15 -62 -25 -115 -22 -117 2 -2 12 3 22 12 16 15 24 14
102 -3 138 -32 145 -34 148 -58 2 -12 7 -22 12 -22 9 0 30 78 30 112 -1 21 -2
22 -14 6 -15 -21 -36 -22 -89 -7 -35 9 -38 13 -32 37 3 15 15 35 27 45 25 21
17 32 -29 42 -33 7 -45 -8 -24 -30 5 -6 7 -25 4 -43 -5 -33 -7 -34 -42 -27
-72 12 -73 14 -66 53 9 49 31 82 55 82 13 0 18 5 14 15 -4 9 -19 15 -38 15
l-33 0 -25 -112z"/>
<path d="M7250 4970 c-11 -11 -20 -24 -20 -30 0 -5 -15 -1 -32 10 -41 25 -59
25 -91 0 -34 -27 -42 -68 -22 -118 22 -54 62 -72 111 -49 19 9 34 20 34 24 1
27 17 33 47 18 87 -43 146 58 82 140 -26 32 -80 34 -109 5z m102 -46 c11 -23
10 -29 -11 -45 -27 -22 -69 -25 -77 -5 -6 16 12 56 30 68 22 15 47 7 58 -18z
m-152 -14 c13 -8 12 -14 -5 -47 -26 -49 -69 -58 -87 -19 -10 23 -8 29 12 51
24 26 54 32 80 15z"/>
<path d="M3190 2380 c0 -6 5 -19 12 -30 11 -17 5 -30 -44 -102 -108 -158 -117
-170 -138 -163 -11 4 -25 3 -31 0 -12 -8 197 -155 221 -155 23 0 70 38 70 56
0 12 -6 13 -22 7 -41 -14 -93 -8 -126 16 -18 12 -32 28 -32 35 0 7 37 67 83
132 74 107 86 119 110 116 42 -4 32 14 -32 58 -64 43 -71 46 -71 30z"/>
<path d="M6115 2345 c-53 -19 -105 -78 -105 -121 0 -77 32 -95 166 -92 90 2
98 1 115 -21 25 -31 24 -43 -7 -75 -31 -30 -75 -34 -131 -11 -19 8 -37 15 -39
15 -10 0 -2 -25 17 -51 16 -22 28 -29 55 -29 79 0 174 82 174 149 0 12 -13 35
-29 53 l-29 33 -111 -3 c-108 -2 -111 -2 -126 22 -21 32 -12 62 23 80 22 11
36 11 75 1 59 -15 69 -3 31 36 -32 33 -27 32 -79 14z"/>
<path d="M5781 2146 c-13 -15 -11 -46 10 -211 13 -110 11 -166 -8 -187 -29
-33 -4 -33 63 0 62 31 80 59 29 46 -24 -6 -27 -2 -40 62 -5 29 -3 32 50 58
l55 27 35 -27 c37 -28 42 -43 23 -62 -6 -6 -8 -15 -4 -19 8 -9 136 56 136 69
0 4 -13 8 -29 8 -28 0 -66 30 -282 227 -23 21 -27 22 -38 9z m129 -178 c0 -12
-78 -49 -84 -40 -2 4 -8 36 -12 72 l-7 64 51 -45 c29 -24 52 -47 52 -51z"/>
<path d="M3455 2025 c-110 -100 -142 -125 -166 -125 -44 0 -35 -13 31 -45 61
-29 85 -29 56 0 -21 21 -21 18 15 59 l31 35 57 -28 57 -29 -5 -49 c-5 -41 -9
-48 -28 -48 -44 -1 -34 -14 35 -49 66 -33 103 -36 66 -5 -14 11 -15 28 -9 114
4 55 8 102 10 105 1 3 6 44 10 91 5 72 4 87 -9 92 -10 4 -61 -36 -151 -118z
m90 -41 c-3 -30 -9 -54 -11 -54 -3 0 -23 9 -46 21 l-41 21 49 49 c55 56 60 52
49 -37z"/>
<path d="M3794 2001 c-61 -37 -50 -95 39 -204 26 -32 47 -66 47 -75 0 -31 -24
-53 -57 -54 -48 -1 -80 25 -96 80 -17 57 -38 61 -50 9 -11 -47 5 -69 78 -103
70 -33 119 -32 156 5 41 41 39 86 -3 140 -18 22 -46 56 -62 76 -45 56 -31 115
27 115 26 0 74 -53 82 -91 5 -23 10 -28 20 -19 17 14 24 52 13 79 -9 27 -81
60 -128 61 -19 0 -49 -9 -66 -19z"/>
<path d="M5377 1978 c-53 -18 -96 -36 -94 -42 2 -6 10 -11 18 -12 8 0 19 -2
25 -2 7 -1 33 -68 59 -149 l47 -147 -22 -16 c-37 -28 -11 -29 66 -3 71 24 89
43 39 43 -19 0 -26 9 -43 59 -28 83 -11 87 86 21 41 -27 82 -51 91 -51 26 -2
53 2 80 13 20 7 23 11 11 18 -8 6 -24 10 -34 10 -11 0 -48 19 -83 41 -64 42
-64 42 -45 63 50 54 52 111 7 160 -33 35 -83 34 -208 -6z m152 -34 c23 -29 27
-64 11 -93 -7 -15 -75 -51 -94 -51 -6 0 -46 121 -46 137 0 17 35 32 77 32 23
1 37 -6 52 -25z"/>
<path d="M5027 1902 c-82 -16 -111 -33 -70 -40 10 -2 21 -7 25 -11 4 -3 17
-63 28 -131 12 -69 24 -135 26 -147 4 -16 -1 -25 -22 -36 -45 -24 -11 -28 88
-12 122 21 150 30 179 61 34 36 31 99 -5 131 -15 13 -36 23 -47 23 -24 0 -24
6 1 37 25 32 26 84 2 113 -24 30 -91 34 -205 12z m141 -36 c19 -23 21 -62 6
-84 -20 -28 -92 -51 -104 -33 -12 20 -22 113 -13 122 20 19 95 16 111 -5z m25
-157 c24 -11 47 -47 47 -74 0 -30 -44 -64 -91 -70 -54 -8 -54 -7 -65 83 -6 53
-4 61 12 65 35 9 73 7 97 -4z"/>
<path d="M4320 1894 c-49 -15 -85 -45 -110 -94 -84 -167 52 -330 232 -279 39
10 68 48 68 89 0 29 -16 25 -51 -14 -74 -85 -175 -57 -200 54 -41 184 134 301
224 150 21 -36 26 -39 37 -25 18 21 2 73 -30 97 -36 27 -118 37 -170 22z"/>
<path d="M4732 1881 c-8 -5 -40 -81 -72 -171 -62 -168 -73 -190 -97 -190 -8 0
-13 -6 -10 -12 2 -7 15 -12 28 -12 13 1 43 2 67 3 45 1 56 15 21 24 -19 5 -21
10 -15 48 4 23 9 46 12 51 3 4 33 8 68 8 l62 0 13 -37 c8 -21 16 -43 18 -50 3
-6 -5 -14 -16 -18 -43 -13 -18 -25 53 -25 81 0 102 11 59 32 -23 11 -38 40
-94 176 -36 90 -70 167 -75 172 -5 5 -15 5 -22 1z m48 -218 c0 -2 -23 -3 -51
-3 -37 0 -50 4 -46 13 2 6 13 38 22 69 l18 58 29 -67 c15 -37 28 -69 28 -70z"/>
<path d="M7184 7205 c-18 -13 -18 -15 -1 -46 l17 -31 -49 -57 c-27 -31 -99
-105 -159 -164 -106 -104 -111 -107 -136 -96 -23 11 -29 10 -44 -5 -16 -16
-15 -19 23 -52 110 -95 110 -96 130 -74 17 19 17 21 1 39 -10 11 -16 24 -15
29 5 12 243 271 246 268 1 -1 -8 -76 -21 -167 -14 -90 -30 -214 -37 -276 -11
-101 -11 -114 5 -137 9 -14 22 -26 29 -26 7 0 96 83 196 185 101 102 189 185
195 185 7 0 17 -5 24 -12 10 -10 17 -7 34 10 l23 22 -75 70 c-74 68 -75 69
-92 48 -16 -18 -16 -22 -3 -41 8 -12 15 -27 15 -33 0 -21 -205 -239 -208 -222
-4 20 35 311 52 394 7 34 9 68 5 76 -5 8 -37 40 -72 71 -58 51 -66 55 -83 42z"/>
<path d="M1911 7014 c-60 -63 -62 -67 -45 -85 15 -17 19 -18 34 -4 28 25 45
18 117 -47 38 -35 93 -85 123 -111 l55 -49 -40 6 c-145 20 -383 46 -433 46
-40 0 -44 -3 -87 -61 -45 -61 -55 -92 -34 -104 5 -4 18 0 28 9 10 9 25 16 33
16 16 0 311 -263 336 -299 10 -14 10 -24 1 -44 -13 -30 -6 -57 15 -57 16 0
146 139 146 156 0 6 -7 17 -15 24 -13 11 -20 9 -40 -10 -13 -12 -30 -20 -37
-17 -18 7 -290 249 -285 253 2 2 26 0 53 -5 27 -5 94 -12 149 -16 109 -7 153
-10 261 -21 50 -4 78 -2 95 6 23 12 39 29 39 40 0 3 -85 84 -190 179 -104 96
-190 181 -190 190 0 9 5 22 12 29 8 8 8 15 -2 27 -21 25 -35 18 -99 -51z"/>
<path d="M7624 6560 c-101 -20 -213 -111 -256 -207 -61 -138 20 -322 167 -378
35 -14 63 -17 119 -12 218 16 366 201 306 382 -20 62 -75 141 -120 174 -38 27
-118 53 -158 50 -9 -1 -36 -5 -58 -9z m180 -114 c40 -17 76 -72 76 -117 0 -46
-35 -114 -78 -149 -58 -48 -192 -110 -236 -110 -83 0 -134 59 -128 147 4 55
144 186 239 223 58 23 83 24 127 6z"/>
<path d="M1451 6455 c-28 -42 -51 -80 -51 -83 0 -4 9 -13 20 -20 17 -10 23
-10 36 3 9 8 22 15 31 15 25 0 250 -140 300 -187 45 -42 46 -42 41 -98 -4 -46
-10 -61 -38 -90 -40 -42 -77 -51 -123 -32 -46 20 -287 175 -309 199 -14 16
-15 24 -6 44 10 20 9 27 -3 35 -8 5 -18 7 -23 6 -12 -4 -136 -218 -136 -235 0
-25 30 -24 55 2 13 14 27 26 31 26 4 0 67 -40 140 -89 138 -94 178 -111 256
-111 61 0 88 11 138 56 65 59 84 105 85 200 0 73 -3 84 -28 118 -29 37 -131
109 -265 185 l-72 42 2 42 c2 32 -1 42 -14 45 -12 2 -32 -20 -67 -73z"/>
<path d="M7995 5977 c-42 -19 -93 -80 -100 -119 -3 -18 -10 -73 -15 -122 -12
-102 -21 -123 -56 -136 -40 -16 -54 -12 -90 24 -28 28 -34 42 -34 76 0 53 12
74 50 90 33 14 37 27 16 55 -14 19 -15 19 -77 -7 l-64 -26 2 -61 c3 -115 78
-231 168 -261 74 -24 165 12 200 81 9 16 22 81 29 145 11 95 17 119 36 139 58
61 140 0 140 -103 0 -8 -16 -30 -36 -49 -33 -30 -35 -37 -26 -59 7 -13 16 -24
21 -24 20 0 123 53 128 67 9 22 -25 134 -58 191 -16 29 -47 63 -68 77 -46 31
-123 41 -166 22z"/>
<path d="M1121 5888 c-5 -13 -25 -60 -45 -105 -35 -81 -35 -83 -15 -94 16 -8
25 -7 40 7 18 16 27 14 217 -60 198 -78 307 -131 332 -161 17 -20 1 -52 -23
-47 -20 3 -28 -35 -10 -53 21 -22 48 -18 80 9 26 23 28 29 28 101 l0 77 -46
42 c-37 34 -87 58 -265 130 -120 49 -225 93 -231 98 -7 6 -12 24 -10 42 2 25
-2 32 -20 34 -16 2 -26 -3 -32 -20z"/>
<path d="M8032 3659 c-83 -15 -167 -90 -196 -177 -19 -54 -21 -149 -4 -203 17
-59 70 -114 146 -151 62 -31 74 -33 167 -33 91 0 104 3 146 27 81 48 128 138
129 248 0 98 -15 138 -74 196 -78 78 -198 113 -314 93z m179 -154 c110 -37
161 -104 140 -183 -26 -96 -148 -129 -293 -78 -85 30 -125 54 -151 89 -52 69
2 177 98 197 39 8 146 -5 206 -25z"/>
<path d="M1433 3653 c-7 -2 -13 -18 -13 -33 0 -27 -4 -30 -71 -50 -111 -33
-332 -90 -351 -90 -9 0 -20 9 -23 20 -7 23 -43 27 -51 6 -3 -8 6 -59 21 -113
35 -133 31 -124 57 -114 17 6 22 15 20 34 -4 31 3 35 89 57 l69 18 6 -26 c16
-75 61 -140 117 -168 69 -36 188 -6 227 59 28 46 25 93 -18 247 -45 164 -47
167 -79 153z m35 -237 c8 -70 -37 -116 -115 -116 -55 0 -71 7 -88 41 -25 48
-20 67 23 78 20 5 55 14 77 19 22 6 54 10 70 9 25 -2 31 -7 33 -31z"/>
<path d="M1584 3182 c-6 -4 -11 -18 -10 -31 1 -22 -17 -32 -204 -112 -113 -49
-210 -89 -216 -89 -7 0 -19 11 -28 25 -19 29 -46 23 -46 -10 0 -13 15 -63 34
-112 30 -78 37 -88 61 -91 26 -3 27 -2 21 31 -6 32 -4 35 31 50 82 36 375 147
387 147 8 0 19 -7 26 -15 14 -17 46 -20 55 -5 9 15 -74 220 -89 220 -6 0 -16
-4 -22 -8z"/>
<path d="M7754 3091 c-39 -17 -84 -82 -144 -207 -33 -69 -60 -131 -60 -138 0
-21 33 -29 46 -12 6 9 17 16 24 16 14 0 375 -184 398 -202 7 -6 10 -19 7 -28
-6 -19 18 -44 36 -38 15 5 102 206 94 218 -10 16 -43 11 -54 -7 -9 -16 -17
-14 -97 25 l-87 43 21 22 c20 19 33 21 145 22 137 0 145 3 178 66 31 63 19
110 -20 75 -21 -19 -46 -23 -173 -31 l-97 -5 -7 37 c-10 55 -29 88 -69 119
-38 28 -105 40 -141 25z m83 -130 c45 -21 63 -45 63 -86 0 -29 -26 -85 -39
-85 -18 0 -181 92 -181 102 0 15 39 61 63 75 30 17 45 16 94 -6z"/>
<path d="M1710 2900 c-8 -5 -15 -21 -15 -36 0 -25 -15 -34 -194 -125 -107 -55
-199 -99 -206 -99 -6 0 -20 9 -30 20 -13 15 -22 17 -36 9 -11 -5 -19 -14 -19
-20 0 -7 182 -350 195 -367 2 -2 140 55 153 64 1 1 -3 13 -9 28 -13 27 -24 33
-34 16 -11 -18 -74 -11 -95 10 -27 27 -73 121 -63 129 17 15 381 181 396 181
9 0 19 -4 22 -10 7 -12 35 -13 53 -1 11 6 2 30 -37 110 -28 55 -55 101 -59
101 -4 0 -14 -5 -22 -10z"/>
<path d="M7504 2601 c-38 -17 -108 -97 -205 -234 l-39 -55 19 -23 c19 -24 20
-24 34 -4 17 23 0 33 250 -149 119 -87 138 -104 134 -124 -4 -20 16 -42 37
-42 8 0 116 163 116 175 0 6 -9 16 -20 23 -17 10 -21 10 -26 -3 -10 -26 -44
-17 -104 30 -73 56 -76 61 -48 79 20 12 33 13 98 1 100 -19 161 -18 188 0 12
9 34 37 49 62 25 44 26 46 8 59 -16 12 -21 12 -34 0 -30 -25 -56 -27 -158 -9
l-103 17 0 43 c0 111 -106 194 -196 154z m67 -123 c53 -29 66 -66 45 -121 -30
-76 -26 -76 -117 -11 -45 32 -84 64 -86 70 -2 6 13 27 32 47 42 43 70 47 126
15z"/>
<path d="M1822 2264 c-118 -46 -228 -84 -245 -84 -17 0 -39 8 -49 17 -17 15
-19 15 -33 -3 -20 -26 -20 -23 26 -85 22 -30 44 -60 48 -68 12 -19 65 -6 57
14 -3 8 -9 21 -12 29 -6 16 61 56 94 56 18 0 122 -112 122 -132 0 -15 -62 -88
-75 -88 -7 0 -19 7 -26 16 -12 15 -15 14 -31 -6 -17 -21 -17 -23 1 -49 11 -14
48 -54 83 -89 63 -61 65 -62 82 -43 14 16 15 23 6 41 -13 24 -11 27 152 298
54 90 98 171 98 181 0 18 -59 81 -75 80 -6 0 -106 -38 -223 -85z m144 -30
c-14 -35 -88 -155 -95 -152 -16 7 -83 89 -78 95 7 7 158 71 171 72 4 1 5 -6 2
-15z"/>
<path d="M7068 2096 c-71 -74 -128 -140 -128 -148 0 -25 21 -38 42 -27 17 9
41 -11 178 -147 l159 -157 -16 -28 c-14 -23 -14 -30 -3 -44 7 -9 19 -15 25
-13 7 2 77 72 155 156 l142 153 -42 55 c-52 66 -58 70 -76 52 -13 -12 -13 -19
-1 -47 20 -48 11 -72 -49 -132 l-54 -54 -67 68 -67 67 39 40 c35 36 44 40 71
35 33 -6 66 18 48 34 -5 4 -33 29 -61 56 -43 39 -55 45 -67 35 -10 -8 -13 -22
-9 -41 5 -25 0 -36 -28 -65 -18 -19 -38 -34 -44 -34 -17 0 -115 104 -115 121
0 9 23 37 50 63 51 48 72 52 108 23 9 -7 18 -6 30 6 15 16 13 20 -28 62 -24
25 -49 45 -55 44 -5 0 -67 -60 -137 -133z"/>
<path d="M2240 2089 c-9 -15 -8 -24 0 -35 7 -7 9 -21 6 -31 -4 -9 -64 -88
-134 -175 l-127 -158 -36 5 c-29 5 -38 3 -43 -12 -6 -14 12 -36 81 -100 48
-45 92 -81 97 -79 5 1 14 10 20 20 9 14 6 21 -11 36 -13 10 -23 24 -23 30 0
16 108 150 121 150 22 0 21 -39 -5 -144 -36 -149 -35 -159 17 -206 23 -22 49
-40 58 -40 21 0 31 24 23 55 -3 12 4 72 17 133 l22 111 46 -6 c85 -10 157 45
168 127 8 60 -35 127 -157 241 -58 55 -110 99 -117 99 -7 0 -17 -9 -23 -21z
m159 -183 c43 -54 41 -88 -8 -137 -49 -49 -79 -50 -126 -6 l-35 32 66 78 c36
43 67 77 69 75 2 -2 17 -20 34 -42z"/>
<path d="M6805 1848 c-178 -107 -228 -282 -124 -434 70 -103 182 -164 272
-150 119 19 225 112 250 217 5 19 1 31 -13 44 -18 16 -40 14 -40 -6 0 -24 -58
-93 -97 -116 -53 -31 -106 -32 -160 -4 -83 42 -173 173 -173 254 0 28 8 46 33
73 43 47 108 57 162 25 28 -16 41 -19 56 -11 10 6 19 14 19 18 0 17 -103 122
-118 121 -9 0 -39 -14 -67 -31z"/>
<path d="M2630 1730 c-8 -15 -6 -21 10 -30 11 -6 20 -16 20 -22 0 -11 -200
-327 -229 -361 -10 -13 -23 -16 -42 -12 -22 5 -29 2 -34 -15 -4 -12 -5 -23 -3
-26 22 -21 336 -224 348 -224 8 0 30 25 49 55 26 45 30 59 21 70 -17 20 -26
19 -61 -7 l-30 -22 -42 22 c-23 12 -55 33 -71 46 l-30 23 48 82 c26 44 52 81
56 81 5 0 28 -15 52 -33 33 -26 43 -40 43 -63 0 -21 5 -30 20 -32 28 -4 106
135 84 149 -20 13 -30 11 -50 -7 -17 -15 -21 -14 -64 10 -25 15 -45 30 -45 33
0 15 86 153 96 153 14 0 89 -54 100 -72 5 -7 11 -33 14 -58 4 -35 9 -46 25
-48 16 -2 26 9 47 52 25 50 26 55 10 69 -39 33 -305 207 -317 207 -8 0 -19 -9
-25 -20z"/>
<path d="M6245 1449 c-159 -66 -218 -172 -154 -275 31 -51 78 -67 204 -70 122
-4 157 -19 163 -67 4 -37 -12 -62 -52 -81 -56 -26 -102 -21 -136 15 -29 32
-55 34 -66 6 -2 -7 7 -39 21 -71 l26 -59 54 6 c97 10 194 68 231 139 22 43 18
115 -11 163 -41 71 -85 83 -297 85 -33 0 -68 32 -68 61 0 30 53 79 86 79 15 0
45 -12 65 -26 36 -25 79 -27 79 -3 0 11 -59 117 -69 123 -3 3 -38 -9 -76 -25z"/>
<path d="M3085 1427 c-36 -11 -81 -52 -101 -89 -31 -59 -13 -112 75 -226 34
-43 61 -87 61 -99 0 -29 -35 -70 -64 -75 -37 -7 -102 26 -120 61 -9 16 -16 50
-16 74 0 42 -10 57 -39 57 -11 0 -51 -98 -51 -125 0 -29 67 -90 134 -121 121
-56 242 -11 277 105 18 61 4 98 -71 200 -39 51 -70 104 -70 116 0 28 40 65 71
65 49 0 96 -67 84 -120 -5 -22 -1 -31 20 -44 l26 -17 25 58 c14 32 28 61 30
65 9 15 -49 67 -103 91 -67 30 -125 38 -168 24z"/>
<path d="M5763 1233 c-101 -36 -183 -70 -183 -74 0 -15 31 -38 44 -33 7 3 17
-1 23 -8 6 -7 40 -103 77 -213 l66 -200 -21 -17 c-22 -18 -19 -58 5 -58 21 0
338 109 362 124 22 15 22 16 8 78 -8 35 -18 66 -23 71 -15 15 -41 -5 -41 -33
0 -43 -34 -76 -100 -98 -34 -12 -62 -17 -65 -11 -10 15 -55 151 -55 164 0 20
89 41 109 27 30 -22 43 -25 56 -11 11 12 9 25 -15 84 -15 39 -33 70 -39 69
-27 -2 -30 -5 -33 -31 -3 -30 -38 -53 -85 -56 -23 -2 -28 4 -50 68 -13 39 -22
76 -21 84 4 18 105 53 130 45 10 -3 23 -14 28 -25 12 -22 48 -26 56 -5 6 16
-28 119 -41 122 -6 1 -92 -27 -192 -63z"/>
<path d="M3555 1230 c-5 -15 0 -26 18 -40 26 -21 27 -26 42 -230 3 -41 8 -91
10 -110 2 -19 7 -73 11 -120 3 -47 9 -88 12 -91 4 -4 23 -12 42 -18 44 -15 38
-21 222 240 75 107 147 199 160 204 13 6 23 19 23 30 0 17 -14 24 -80 41 -44
12 -86 19 -92 16 -21 -7 -15 -39 11 -59 l25 -18 -97 -147 c-53 -81 -99 -144
-103 -140 -4 4 -10 82 -14 175 -8 178 -9 172 42 168 22 -2 43 34 26 49 -9 8
-221 70 -240 70 -6 0 -15 -9 -18 -20z"/>
<path d="M5295 1116 c-5 -2 -56 -12 -112 -22 -85 -14 -103 -20 -103 -35 0 -10
12 -24 27 -31 31 -15 31 -15 69 -238 14 -80 27 -159 31 -176 4 -24 0 -36 -17
-52 -33 -31 -23 -58 20 -54 60 6 240 51 289 73 97 43 151 127 151 240 0 183
-95 289 -265 296 -44 1 -84 1 -90 -1z m87 -70 c93 -20 163 -174 137 -299 -9
-39 -21 -61 -49 -88 -37 -36 -117 -66 -132 -51 -10 10 -70 399 -66 421 3 15
49 30 73 25 6 -1 22 -5 37 -8z"/>
<path d="M4124 1086 c-7 -18 1 -47 13 -45 31 5 34 -2 28 -73 -10 -119 -35
-342 -41 -359 -2 -9 -18 -19 -34 -23 -24 -4 -30 -11 -30 -31 0 -14 6 -25 13
-25 6 0 91 -9 187 -20 96 -11 185 -20 198 -20 25 0 37 22 47 93 10 66 -13 74
-59 21 -33 -39 -35 -39 -100 -37 -37 1 -71 5 -77 9 -13 8 -2 163 12 180 11 14
87 7 107 -9 6 -5 12 -18 12 -28 0 -13 7 -19 24 -19 29 0 36 21 36 108 0 54 -2
62 -19 62 -10 0 -26 -11 -34 -24 -14 -21 -20 -23 -68 -15 -28 4 -53 10 -54 11
-1 2 2 43 8 92 l10 88 51 -7 c72 -9 99 -25 110 -62 7 -25 15 -33 31 -33 28 0
35 17 35 86 0 45 -3 54 -17 54 -23 0 -286 28 -340 36 -34 5 -44 3 -49 -10z"/>
<path d="M4597 1053 c-4 -3 -7 -17 -7 -30 0 -16 6 -23 19 -23 11 0 22 -3 24
-7 7 -11 15 -123 23 -298 l6 -151 -26 -12 c-18 -8 -26 -19 -24 -30 3 -15 17
-17 118 -17 115 0 115 0 115 24 0 16 -6 25 -19 27 -10 1 -22 6 -26 11 -11 11
-18 183 -9 189 14 8 49 -40 96 -131 25 -49 50 -96 55 -102 7 -8 37 -13 84 -13
71 0 74 1 74 24 0 14 -10 30 -23 39 -20 13 -127 184 -127 203 0 4 18 26 40 50
35 38 40 49 40 91 0 68 -26 113 -80 141 -40 20 -59 22 -195 22 -84 0 -155 -3
-158 -7z m269 -61 c22 -15 34 -52 34 -111 0 -69 -11 -81 -78 -81 l-39 0 -7 90
c-4 49 -5 94 -1 100 7 11 74 13 91 2z"/>
</g>
</svg>
